<svg width="138" height="19" viewBox="0 0 138 19" fill="none" xmlns="http://www.w3.org/2000/svg">
<path d="M0.321023 18V0.545454H7.59943C8.90625 0.545454 10 0.730113 10.8807 1.09943C11.767 1.46875 12.4318 1.98579 12.875 2.65057C13.3239 3.31534 13.5483 4.08523 13.5483 4.96023C13.5483 5.625 13.4091 6.21875 13.1307 6.74148C12.8523 7.25852 12.4688 7.6875 11.9801 8.02841C11.4915 8.36932 10.9261 8.60795 10.2841 8.74432V8.91477C10.9886 8.94886 11.6392 9.1392 12.2358 9.4858C12.8381 9.83239 13.321 10.3153 13.6847 10.9347C14.0483 11.5483 14.2301 12.2756 14.2301 13.1165C14.2301 14.054 13.9915 14.892 13.5142 15.6307C13.0369 16.3636 12.3466 16.9432 11.4432 17.3693C10.5398 17.7898 9.44318 18 8.15341 18H0.321023ZM4.53977 14.5994H7.14773C8.0625 14.5994 8.7358 14.4261 9.16761 14.0795C9.60511 13.733 9.82386 13.25 9.82386 12.6307C9.82386 12.1818 9.71875 11.7955 9.50852 11.4716C9.2983 11.142 9 10.8892 8.61364 10.7131C8.22727 10.5312 7.7642 10.4403 7.22443 10.4403H4.53977V14.5994ZM4.53977 7.72159H6.875C7.33523 7.72159 7.74432 7.64489 8.10227 7.49148C8.46023 7.33807 8.73864 7.11648 8.9375 6.8267C9.14205 6.53693 9.24432 6.1875 9.24432 5.77841C9.24432 5.19318 9.03693 4.73295 8.62216 4.39773C8.20739 4.0625 7.64773 3.89489 6.94318 3.89489H4.53977V7.72159ZM16.2585 18V0.545454H20.4773V14.5739H27.7386V18H16.2585ZM45.7173 9.27273C45.7173 11.1932 45.348 12.821 44.6094 14.1562C43.8707 15.4915 42.8707 16.5057 41.6094 17.1989C40.3537 17.892 38.9446 18.2386 37.3821 18.2386C35.8139 18.2386 34.402 17.8892 33.1463 17.1903C31.8906 16.4915 30.8935 15.4773 30.1548 14.1477C29.4219 12.8125 29.0554 11.1875 29.0554 9.27273C29.0554 7.35227 29.4219 5.72443 30.1548 4.3892C30.8935 3.05398 31.8906 2.03977 33.1463 1.34659C34.402 0.653409 35.8139 0.306818 37.3821 0.306818C38.9446 0.306818 40.3537 0.653409 41.6094 1.34659C42.8707 2.03977 43.8707 3.05398 44.6094 4.3892C45.348 5.72443 45.7173 7.35227 45.7173 9.27273ZM41.4048 9.27273C41.4048 8.13636 41.2429 7.17614 40.919 6.39205C40.6009 5.60795 40.1406 5.0142 39.5384 4.61079C38.9418 4.20739 38.223 4.00568 37.3821 4.00568C36.5469 4.00568 35.8281 4.20739 35.2259 4.61079C34.6236 5.0142 34.1605 5.60795 33.8366 6.39205C33.5185 7.17614 33.3594 8.13636 33.3594 9.27273C33.3594 10.4091 33.5185 11.3693 33.8366 12.1534C34.1605 12.9375 34.6236 13.5312 35.2259 13.9347C35.8281 14.3381 36.5469 14.5398 37.3821 14.5398C38.223 14.5398 38.9418 14.3381 39.5384 13.9347C40.1406 13.5312 40.6009 12.9375 40.919 12.1534C41.2429 11.3693 41.4048 10.4091 41.4048 9.27273ZM64.6548 9.27273C64.6548 11.1932 64.2855 12.821 63.5469 14.1562C62.8082 15.4915 61.8082 16.5057 60.5469 17.1989C59.2912 17.892 57.8821 18.2386 56.3196 18.2386C54.7514 18.2386 53.3395 17.8892 52.0838 17.1903C50.8281 16.4915 49.831 15.4773 49.0923 14.1477C48.3594 12.8125 47.9929 11.1875 47.9929 9.27273C47.9929 7.35227 48.3594 5.72443 49.0923 4.3892C49.831 3.05398 50.8281 2.03977 52.0838 1.34659C53.3395 0.653409 54.7514 0.306818 56.3196 0.306818C57.8821 0.306818 59.2912 0.653409 60.5469 1.34659C61.8082 2.03977 62.8082 3.05398 63.5469 4.3892C64.2855 5.72443 64.6548 7.35227 64.6548 9.27273ZM60.3423 9.27273C60.3423 8.13636 60.1804 7.17614 59.8565 6.39205C59.5384 5.60795 59.0781 5.0142 58.4759 4.61079C57.8793 4.20739 57.1605 4.00568 56.3196 4.00568C55.4844 4.00568 54.7656 4.20739 54.1634 4.61079C53.5611 5.0142 53.098 5.60795 52.7741 6.39205C52.456 7.17614 52.2969 8.13636 52.2969 9.27273C52.2969 10.4091 52.456 11.3693 52.7741 12.1534C53.098 12.9375 53.5611 13.5312 54.1634 13.9347C54.7656 14.3381 55.4844 14.5398 56.3196 14.5398C57.1605 14.5398 57.8793 14.3381 58.4759 13.9347C59.0781 13.5312 59.5384 12.9375 59.8565 12.1534C60.1804 11.3693 60.3423 10.4091 60.3423 9.27273ZM73.5696 18H67.1179V0.545454H73.5611C75.3395 0.545454 76.8707 0.894886 78.1548 1.59375C79.4446 2.28693 80.4389 3.28693 81.1378 4.59375C81.8366 5.89489 82.1861 7.4517 82.1861 9.2642C82.1861 11.0824 81.8366 12.6449 81.1378 13.9517C80.4446 15.2585 79.4531 16.2614 78.1634 16.9602C76.8736 17.6534 75.3423 18 73.5696 18ZM71.3366 14.4034H73.4077C74.3849 14.4034 75.2116 14.2386 75.8878 13.9091C76.5696 13.5739 77.0838 13.0312 77.4304 12.2812C77.7827 11.5256 77.9588 10.5199 77.9588 9.2642C77.9588 8.00852 77.7827 7.00852 77.4304 6.2642C77.0781 5.5142 76.5582 4.97443 75.8707 4.64489C75.1889 4.30966 74.348 4.14204 73.348 4.14204H71.3366V14.4034Z" fill="#D20C25"/>
<path d="M84.6491 18V0.545454H88.8679V14.5739H96.1293V18H84.6491ZM102.532 0.545454V18H98.3132V0.545454H102.532ZM120.036 0.545454V18H116.456L109.51 7.92614H109.399V18H105.18V0.545454H108.811L115.68 10.6023H115.825V0.545454H120.036ZM122.688 18V0.545454H126.907V7.92614H127.137L132.907 0.545454H137.876L131.688 8.33523L137.987 18H132.941L128.594 11.1392L126.907 13.2699V18H122.688Z" fill="white"/>
</svg>
