<svg width="2729" height="734" viewBox="0 0 2729 734" fill="none" xmlns="http://www.w3.org/2000/svg">
<rect width="750" height="734" rx="50" fill="#D20C25"/>
<rect x="42" y="41" width="333" height="657" rx="15" fill="#D9D9D9"/>
<path d="M83.8551 533V205.727H220.325C244.828 205.727 265.336 209.19 281.849 216.114C298.468 223.039 310.933 232.734 319.242 245.198C327.658 257.663 331.866 272.098 331.866 288.504C331.866 300.969 329.256 312.102 324.036 321.903C318.816 331.597 311.625 339.641 302.463 346.033C293.301 352.425 282.701 356.899 270.663 359.456V362.652C283.873 363.291 296.071 366.86 307.257 373.359C318.55 379.857 327.605 388.913 334.423 400.525C341.241 412.031 344.651 425.667 344.651 441.434C344.651 459.012 340.176 474.726 331.227 488.575C322.278 502.318 309.335 513.185 292.396 521.175C275.457 529.058 254.896 533 230.712 533H83.8551ZM162.957 469.239H211.856C229.008 469.239 241.632 465.99 249.729 459.491C257.932 452.993 262.033 443.938 262.033 432.325C262.033 423.909 260.063 416.665 256.121 410.592C252.179 404.413 246.586 399.673 239.342 396.37C232.097 392.961 223.415 391.256 213.294 391.256H162.957V469.239ZM162.957 340.28H206.742C215.371 340.28 223.042 338.842 229.754 335.965C236.465 333.089 241.685 328.934 245.414 323.501C249.249 318.067 251.167 311.516 251.167 303.845C251.167 292.872 247.278 284.243 239.501 277.957C231.724 271.672 221.231 268.529 208.021 268.529H162.957V340.28Z" fill="#D20C25"/>
<path d="M465.169 533V205.727H544.27V468.76H680.421V533H465.169Z" fill="#2B4A9D"/>
<path d="M912.896 476V257.818H1003.88C1020.21 257.818 1033.88 260.126 1044.89 264.743C1055.97 269.359 1064.28 275.822 1069.82 284.132C1075.43 292.442 1078.24 302.065 1078.24 313.003C1078.24 321.312 1076.5 328.734 1073.02 335.268C1069.54 341.732 1064.74 347.094 1058.63 351.355C1052.53 355.616 1045.46 358.599 1037.43 360.304V362.435C1046.24 362.861 1054.37 365.24 1061.83 369.572C1069.36 373.905 1075.4 379.942 1079.94 387.683C1084.49 395.354 1086.76 404.445 1086.76 414.956C1086.76 426.675 1083.78 437.151 1077.81 446.384C1071.84 455.545 1063.22 462.79 1051.92 468.116C1040.63 473.372 1026.92 476 1010.8 476H912.896ZM965.63 433.493H998.229C1009.66 433.493 1018.08 431.327 1023.48 426.994C1028.95 422.662 1031.68 416.625 1031.68 408.884C1031.68 403.273 1030.37 398.443 1027.74 394.395C1025.11 390.276 1021.38 387.115 1016.55 384.913C1011.72 382.641 1005.94 381.504 999.188 381.504H965.63V433.493ZM965.63 347.52H994.82C1000.57 347.52 1005.69 346.561 1010.16 344.643C1014.64 342.726 1018.12 339.956 1020.6 336.334C1023.16 332.712 1024.44 328.344 1024.44 323.23C1024.44 315.915 1021.84 310.162 1016.66 305.972C1011.48 301.781 1004.48 299.686 995.673 299.686H965.63V347.52ZM1112.11 476V257.818H1164.85V433.173H1255.62V476H1112.11ZM1480.35 366.909C1480.35 390.915 1475.73 411.263 1466.5 427.953C1457.27 444.643 1444.77 457.321 1429 465.986C1413.3 474.651 1395.69 478.983 1376.16 478.983C1356.56 478.983 1338.91 474.615 1323.21 465.879C1307.52 457.143 1295.05 444.466 1285.82 427.847C1276.66 411.156 1272.08 390.844 1272.08 366.909C1272.08 342.903 1276.66 322.555 1285.82 305.865C1295.05 289.175 1307.52 276.497 1323.21 267.832C1338.91 259.168 1356.56 254.835 1376.16 254.835C1395.69 254.835 1413.3 259.168 1429 267.832C1444.77 276.497 1457.27 289.175 1466.5 305.865C1475.73 322.555 1480.35 342.903 1480.35 366.909ZM1426.44 366.909C1426.44 352.705 1424.42 340.702 1420.37 330.901C1416.39 321.099 1410.64 313.678 1403.11 308.635C1395.65 303.592 1386.67 301.071 1376.16 301.071C1365.72 301.071 1356.73 303.592 1349.21 308.635C1341.68 313.678 1335.89 321.099 1331.84 330.901C1327.86 340.702 1325.88 352.705 1325.88 366.909C1325.88 381.114 1327.86 393.116 1331.84 402.918C1335.89 412.719 1341.68 420.141 1349.21 425.183C1356.73 430.226 1365.72 432.747 1376.16 432.747C1386.67 432.747 1395.65 430.226 1403.11 425.183C1410.64 420.141 1416.39 412.719 1420.37 402.918C1424.42 393.116 1426.44 381.114 1426.44 366.909ZM1717.07 366.909C1717.07 390.915 1712.45 411.263 1703.22 427.953C1693.99 444.643 1681.49 457.321 1665.72 465.986C1650.02 474.651 1632.41 478.983 1612.88 478.983C1593.28 478.983 1575.63 474.615 1559.93 465.879C1544.23 457.143 1531.77 444.466 1522.54 427.847C1513.38 411.156 1508.79 390.844 1508.79 366.909C1508.79 342.903 1513.38 322.555 1522.54 305.865C1531.77 289.175 1544.23 276.497 1559.93 267.832C1575.63 259.168 1593.28 254.835 1612.88 254.835C1632.41 254.835 1650.02 259.168 1665.72 267.832C1681.49 276.497 1693.99 289.175 1703.22 305.865C1712.45 322.555 1717.07 342.903 1717.07 366.909ZM1663.16 366.909C1663.16 352.705 1661.14 340.702 1657.09 330.901C1653.11 321.099 1647.36 313.678 1639.83 308.635C1632.37 303.592 1623.39 301.071 1612.88 301.071C1602.44 301.071 1593.45 303.592 1585.92 308.635C1578.4 313.678 1572.61 321.099 1568.56 330.901C1564.58 340.702 1562.59 352.705 1562.59 366.909C1562.59 381.114 1564.58 393.116 1568.56 402.918C1572.61 412.719 1578.4 420.141 1585.92 425.183C1593.45 430.226 1602.44 432.747 1612.88 432.747C1623.39 432.747 1632.37 430.226 1639.83 425.183C1647.36 420.141 1653.11 412.719 1657.09 402.918C1661.14 393.116 1663.16 381.114 1663.16 366.909ZM1828.5 476H1747.86V257.818H1828.4C1850.63 257.818 1869.77 262.186 1885.82 270.922C1901.94 279.587 1914.37 292.087 1923.11 308.422C1931.84 324.686 1936.21 344.146 1936.21 366.803C1936.21 389.53 1931.84 409.061 1923.11 425.396C1914.44 441.732 1902.05 454.267 1885.92 463.003C1869.8 471.668 1850.66 476 1828.5 476ZM1800.59 431.043H1826.48C1838.69 431.043 1849.03 428.983 1857.48 424.864C1866 420.673 1872.43 413.891 1876.76 404.516C1881.17 395.07 1883.37 382.499 1883.37 366.803C1883.37 351.107 1881.17 338.607 1876.76 329.303C1872.36 319.928 1865.86 313.18 1857.27 309.061C1848.74 304.871 1838.23 302.776 1825.73 302.776H1800.59V431.043Z" fill="#D20C25"/>
<path d="M1967 476V257.818H2019.73V433.173H2110.5V476H1967ZM2190.53 257.818V476H2137.8V257.818H2190.53ZM2409.33 257.818V476H2364.58L2277.76 350.077H2276.37V476H2223.64V257.818H2269.02L2354.89 383.528H2356.7V257.818H2409.33ZM2442.49 476V257.818H2495.22V350.077H2498.1L2570.22 257.818H2632.33L2554.99 355.19L2633.71 476H2570.65L2516.31 390.24L2495.22 416.874V476H2442.49Z" fill="#2B4A9D"/>
</svg>
